<?xml version="1.0" encoding="utf-8"?>
<!-- Generator: Adobe Illustrator 19.0.0, SVG Export Plug-In . SVG Version: 6.00 Build 0)  -->
<svg version="1.1" id="Layer_1" xmlns="http://www.w3.org/2000/svg" xmlns:xlink="http://www.w3.org/1999/xlink" x="0px" y="0px"
	 viewBox="0 0 396.7 403.5" style="enable-background:new 0 0 396.7 403.5;" xml:space="preserve">
<style type="text/css">
	.st0{clip-path:url(#SVGID_2_);fill:url(#SVGID_3_);}
</style>
<g>
	<defs>
		<path id="SVGID_1_" d="M169.3,161.3c3-1.7,4.7-3.3,6.7-3.8c1.6-0.4,4.2-0.1,5.1,0.9c1.7,1.9,3.1,4.5,3.6,7.1
			c0.6,3.3,1.4,6.2,3.4,9c0.8,1.1,0.1,3.1,0.6,4.6c1.3,4.2,3.2,8.3,4.4,12.5c1.7,6.2,2.9,12.5,4.3,18.8c0.6,0,1.3,0.1,1.9,0.1
			c1.8-6.1,3.8-12.1,5.4-18.3c1.8-7.1,3-14.3,4.8-21.4c1.5-5.7,3.7-11.2,5.1-17c1-3.9,1.3-7.9,1.9-11.9c0.2-1.3,0.3-2.7,0.7-4
			c2-6.9,4.1-13.8,6-20.7c0.2-0.8,0-1.8,0-3.7c-5.3,6.9-10,13.1-14.7,19.2c-2.7,3.6-5.3,7.2-8.1,10.8c-1.4,1.8-7.7,3.1-8.3,1.7
			c-1.1-3-2.7-7.4-1.4-9.2c4.9-6.8,11.1-12.6,16.5-19.1c3.5-4.2,6.4-8.9,9.7-13.3c0.8-1,2.1-1.6,2.8-2.6c2.1-3,4.2-6.1,6-9.3
			c0.7-1.1,0.7-2.6,1.1-4.7c0.7-0.6,1.9-1.8,3.2-2.9c2.5-2.3,5.6-4.1,8.7-2.3c2,1.1,3.1,3.9,4.6,5.9c0.9,1.2,1.9,2.4,2.8,3.6
			c0.5,0,1,0,1.5,0c-1.2,1.5-2.3,3-3.8,4.9c1.5,7.2,2.8,15.3,4.8,23.3c2,8,4.8,15.9,7.2,23.8c0.7,2.4,1.9,4.8,2.1,7.3
			c0.2,2.8-0.6,5.6-0.9,8.5c-1.9,0-3.2-0.1-4.4,0c-3.7,0.5-6.3-2.1-7.1-5.8c-1.5-7.6-3.5-15.1-5.3-22.6c-1.1-4.7-2.2-9.4-3.4-14.1
			c-0.2-0.9-0.5-1.8-1.5-2.6c-0.4,2-0.7,4.1-1.2,6c-1.5,5.6-2.9,11.3-4.6,16.9c-2.3,7.9-5.1,15.8-7.2,23.8
			c-1.7,6.4-2.5,13.1-4.1,19.5c-1.2,5-3.2,9.8-4.7,14.8c-1,3.4-1.8,6.8-2.7,10.2c-2.2,8.4-4.4,16.7-6.6,25.1
			c-0.2,0.8-0.4,1.8-0.2,2.6c1.9,6.1,3.9,12.2,5.8,18.3c1.2,4,2.2,8.1,3.4,12c1.1,3.6,2.5,7.1,4.1,11.7c-2,5,3.5,9.8,4.2,15.6
			c0.7,6,3.2,11.8,5,17.9c-0.2,0.2-0.9,0.7-1.5,1.3c-1.4,1.4-2.8,2.7-4.2,4.1c-1.6-2.5-5.9-1.3-6.4-5.8c-0.5-4.5-3.4-8.8-4-13.4
			c-1.2-8.9-4.5-17.1-7.1-25.5c-1.7-5.5-2.8-11.2-4.2-16.8c-0.4,0-0.7,0-1.1,0c-10,38.1-19.9,76.2-29.9,114.3
			c0.3,0.2,0.6,0.4,0.9,0.6c2.7-2.4,6-3.8,7.9-7.4c1.4-2.8,3.9-5,5.9-7.5c4.1-5.1,8-10.4,12.5-15.2c1.6-1.8,4.4-3.5,6.6-3.4
			c1.7,0,3.8,2.7,4.7,4.6c0.6,1.4-0.3,3.9-1.4,5.3c-2.1,2.9-4.8,5.4-7.2,8c-4.5,4.9-9.2,9.6-13.4,14.7c-3.6,4.3-6.5,9.2-10,13.6
			c-2.5,3-6,5.2-8.2,8.3c-2.3,3.3-5.7,3.9-8,5.2c-2.8-1.6-5.2-2.9-7.7-4.3c1.1-2.8,1.8-5.3-1.2-7.4c-0.6-0.4-0.9-2.1-0.6-2.8
			c2.2-4.7,0.7-8.9-1.3-13.1c-0.6-1.3-0.3-3.1-0.6-4.6c-1.5-7.2-3-14.4-4.6-21.6c-0.5-2.2-1.5-4.2-2-6.4c-0.5-2-1-4.2-0.6-6.2
			c0.5-3.1,0.7-5.5-0.8-8.8c-1.6-3.5-0.9-8.1-1.3-12.1c-0.2-2.7-0.5-5.5-0.9-8.2c-1.6-9.3-3.6-18.5-5.1-27.8
			c-1.3-8.2-2-16.5-3.2-24.7c-0.7-4.8-2.1-9.5-3.1-14.2c-0.5-2.5-0.7-5.1-1.1-7.6c-0.6-3.5-1.3-7-1.9-10.6
			c-1.1-6.7-2.1-13.4-3.4-20.1c-1-4.8-2.4-9.4-3.5-13.4c-1.7-0.3-3.2-0.7-4.7-0.9c-0.8-0.1-1.6-0.2-2.4-0.2
			c-1.9,0.1-3.7,0.3-5.6,0.3c-11.7-0.2-23.4-0.6-35-0.6c-4.2,0-8.5,0.8-12.7,1.5c-0.8,0.1-1.9,1.4-2.1,2.4
			c-5.3,21.2-10.8,42.5-15.7,63.8c-1,4.2-3.4,8.7-0.8,13.4c0.1,0.2-0.2,0.6-0.4,0.9c-4.5,7.8-3.6,17-7.1,25.1c-0.4,1-1,2-1.3,3
			c-0.4,1.6-0.6,3.3-0.9,5.4c-0.6,1.4-1.9,3.2-2.2,5.3c-0.6,4.3-3.6,8.2-1.8,13.1c0.7,1.8-1.5,4.6-2.1,7c-0.6,2.5-0.8,5.2-1.2,7.7
			c-0.1,0.5,0.1,1-0.1,1.5c-0.7,1.7-7.4,4.7-9.4,3c-1.7-1.5-2.6-4.4-3-6.8c-0.4-2.7,0.1-5.6,0.6-8.3c0.6-2.9,1.7-5.7,2.4-8.5
			c0.6-2.2,0.9-4.4,1.5-6.5c0.3-1.3,0.9-2.5,1.4-3.7c0.5-1.5,1.2-3,1.6-4.5c0.7-2.9,1.3-5.9,1.8-8.9c0.2-1.4,0-2.8,0-3.4
			c0.4-2.3,0.5-3.9,1-5.3c1.4-3.9,2.9-7.7,4.4-11.6c0.2-0.6,1.1-1.1,1-1.5c-1.9-6.7,4.7-10.5,5.3-16.5c0.7-6.1,2.8-12,4.4-18
			c1.6-6,3.3-11.9,4.7-17.8c1.5-6.1,2.6-12.2,4.1-18.2c3.2-12.5,6.5-25,9.7-37.4c2.1-8.2,4.2-16.5,6.2-24.7
			c2.5-10.1,5-20.3,7.3-30.4c3.1-13.7,6-27.5,9.1-41.1c1.2-5.2,2.9-10.3,4.1-15.5c0.5-2.5,0.2-5.1,0.3-7.7c0-0.8,0.3-1.6,0.5-2.4
			c0.4-2.3,0.8-4.7,1.1-7c0.1-0.9-0.1-1.9,0.2-2.7c0.8-2.3,1.5-4.6,2.6-6.7c0.6-1.2,2-2.1,3.2-2.7c4.2-2,7.2-0.2,7.9,4.3
			c0.3,1.8,1.2,3.5,1.9,5.3c0.1,0.2,0.5,0.5,0.4,0.5c-3.4,4.3,2.2,5.1,3.1,7.7c0.8,2.3,1.6,4.7,2,7.1c0.8,4.4,1.2,8.8,2,13.1
			c0.6,2.9,2,5.4,1.1,8.8c-0.7,2.6,1.1,5.7,1.7,8.6c1,4.7,2,9.4,3,14c1.1,5.2,1.5,10.7,3.5,15.5c1.8,4.2,0.9,8.4,1.7,12.5
			c1.3,6.9,2.3,13.8,3.5,20.7c0.1,0.6,1.1,0.9,1.5,1.5c0.5,0.6,1.2,1.5,1.1,2.1c-1.9,6.4,0.2,12.5,1.5,18.6
			c0.8,3.5,0.9,7.2,1.5,10.8c0.4,2.5,1,5,1.8,7.5c1.4,4.6,4.4,9.2,4,13.6c-0.4,4.4,0.2,8.3,1,12.3c0.8,4.4,1.9,8.7,2.7,13
			c0.8,4.6,1.2,9.3,1.9,14c0.4,3,0.7,6.1,1.6,8.9c2.8,8.6,4,17.5,5.6,26.3c1.1,6.2,3.4,12.3,5,18.5c0.3,1.3,0.8,3.2,0.2,3.9
			c-2.4,2.7-0.8,5.4-0.4,8c1.5,9,3.2,17.9,4.9,26.9c1,5.5,2.3,10.9,3.1,16.4c0.8,4.9,1,9.8,1.7,14.7c0.5,3.7,1.4,7.4,2.1,11
			c0.3,0,0.6,0.1,1,0.1c1.1-3.3,2.4-6.5,3.4-9.9c1.8-6.3,3.3-12.8,5.1-19.1c2.5-9,5.4-17.9,7.8-26.9c2.7-10.2,4.8-20.5,7.4-30.7
			c1.1-4.1,3.1-8,4.2-12.1c1.5-5.5,2.6-11.2,3.8-16.8c0.7-3,1.5-5.9,1.8-8.9c0.1-1.6-0.9-3.3-1.1-5.1c-0.3-1.6,0-3.3-0.4-4.9
			c-1.5-5.4-3.2-10.9-4.9-16.2c-1.9-5.8-3.9-11.6-6-17.3c-0.2-0.6-1.2-0.9-1.6-1.4c-1.1-1.4-2.2-2.5-2.1-5c0.2-3.6-0.7-7.5-1.9-11
			C173.5,169.5,171.2,165.4,169.3,161.3z M88.5,44c-0.5,0-1.1,0-1.6,0.1c-10,40.9-20,81.8-30,122.9c1.5,0.4,2.5,0.8,3.4,0.8
			c6.3-0.1,12.6-0.6,19,0.2c6.2,0.7,12.5-0.2,18.8-0.5c4.6-0.2,9.1-0.4,13.6-0.8c1.9-0.2,2.6-1.4,2.2-3.5c-2-9.4-3.8-18.9-5.9-28.2
			c-2.4-10.8-5-21.6-7.5-32.4c-1.1-4.8-2-9.7-3.1-14.6c-1.3-5.8-2.5-11.5-3.9-17.3c-0.4-1.6-1-3.1-1.3-4.7c-0.7-3.3-1.2-6.6-1.8-9.9
			C89.8,52,89.1,48,88.5,44z M327.2,293.4c1.9,1.8,3.3,4.1,5.4,5.5c6.1,4,12.3,7.5,20.1,7c6.8-0.4,13.4-1.2,19.8-3.8
			c6.3-2.6,12.2-6.3,14.5-12.7c1.2-3.5,2.9-7,3.7-10.8c0.1-0.4,0.1-0.7,0-1.1c-1-6-1.5-12.1-3.1-17.9c-1-3.4-2.5-6.9-5.3-9.6
			c-2-1.9-3.4-4.3-5.4-6.1c-2.3-2-5.1-3.5-7.6-5.4c-2.6-1.9-5.1-3.9-7.5-6c-1.9-1.7-3.2-4-5.2-5.4c-3.9-2.7-8.1-5-12.2-7.4
			c-1-0.6-2.1-1.3-3.2-1.7c-2.5-0.9-5.6-0.9-7.5-2.4c-3.4-2.6-8.3-4.5-7.5-10.4c0.3-2.2-0.5-4.6-0.3-6.8c0.7-7,3.4-13,7.5-18.8
			c3.6-5.2,8.7-6.6,13.8-7.8c3.3-0.8,7.3,0,10.7,0.9c5.4,1.5,6.3,7.2,9.2,11.1c2,2.7,3.1,6.4,4,9.8c0.7,2.8,3.4,4.2,4.7,3.7
			c2-0.8,4.6-3.5,4.4-5.2c-0.4-5.2-1.4-10.6-3.5-15.3c-1.7-3.8-4.8-7.9-8.3-9.9c-5.2-3-11.3-4.7-17.3-6c-4.2-0.9-8.6,1-12.9,1.9
			c-6,1.2-9.1,6.3-14.2,8.7c-2.8,1.3-3.9,6.5-5.3,10.2c-1.5,3.6-2.6,7.4-3.6,11.2c-0.5,2,0,4.2-0.7,6.1c-2.7,7.7,1.4,13.6,5,19.6
			c0.6,1.1,1.5,2.2,2.5,2.8c6.6,3.8,13.5,7.4,20,11.4c6.5,4,13.1,8.1,19.1,12.7c4.3,3.3,7.4,8.1,11.7,11.4c3.2,2.4,4.8,5,4.9,8.9
			c0.1,3.4,0.9,6.8,0.9,10.2c0,5.6-2.2,10.3-6.6,13.9c-0.8,0.7-3.2,0-3.5,0.7c-1.7,3.3-4.6,3.4-7.7,4.5c-5.7,2-10.8,0.2-16.1-0.9
			c-2.1-0.5-3.6-3-5.7-3.7c-3.3-1.2-3.7-3.7-4.7-6.5c-1.3-3.4-3.5-6.6-5.9-9.5c-0.7-0.8-3-0.4-4.5-0.5c-2.7-0.1-5,3.6-3.8,6
			c1.8,3.7,5.1,7,3.7,11.4C325.1,292,326.3,292.5,327.2,293.4z M279.8,303c1.6,3.5,4.7,4.4,8,4.5c0.9,0,2.2-0.9,2.7-1.7
			c2.4-4.6,2.3-9.5,1.5-14.5c-0.4-2.4-1.2-4.9-1.2-7.3c-0.1-4.6,0-9.2,0.4-13.7c0.6-7.4-0.9-14.6,0.4-22.1c1.1-6.3-0.3-13-0.5-19.5
			c-0.3-8.2-0.6-16.5-0.9-24.7c0-0.4-0.1-0.8,0-1.1c2.8-5.8,0.3-11.7,0.6-17.6c0.3-5.3,0.2-10.7,0.7-16c0.3-3.2-2.1-9-4.7-9.1
			c-2.1-0.1-4.4,0.9-6.2,2.1c-1,0.6-1.4,2.5-1.7,3.9c-0.7,4.4,0.5,8.7,0.9,13c0.7,7.2,0.2,14.5,0.3,21.8c0.1,8.7,0.2,17.4,0.3,26.2
			c0.1,8.1,0.9,16.2,0.3,24.2c-0.7,9.8,1.7,19.6-0.7,29.4c-0.9,3.6-0.2,7.6,0.4,11.4c0.6,3.5,0.2,6.3-2.7,8.8
			C278.7,301.7,279.5,302.3,279.8,303z M291.9,118.7c-1-1.6-3-3.8-4.3-3.7c-3.6,0.3-8-1.1-10.4,3.2c-0.2,0.3-0.3,0.7-0.3,1.1
			c0.2,2.9,0.6,5.7,0.8,8.6c0.2,4.1,3.2,5.5,6.4,5.2c2.7-0.2,6.4,0.3,7.4-4.1c0.3-1.4,2-2.6,3-3.8
			C293.5,122.8,293.1,120.5,291.9,118.7z"/>
	</defs>
	<clipPath id="SVGID_2_">
		<use xlink:href="#SVGID_1_"  style="overflow:visible;"/>
	</clipPath>
	<linearGradient id="SVGID_3_" gradientUnits="userSpaceOnUse" x1="0" y1="190.4" x2="396.7302" y2="190.4">
		<stop  offset="0" style="stop-color:#FF512F"/>
		<stop  offset="1" style="stop-color:#F09819"/>
	</linearGradient>
	<rect y="-44.6" class="st0" width="396.7" height="470"/>
</g>
</svg>
